# xmcd
#
# Track frame offsets: 
#        150
#        35387
#        59107
#        97100
#        124699
#        174895
#        201171
#        236029
#        266384
#        285734
#
# Disc length: 4085 seconds
#
# Revision: 4
# Processed by: cddbd v1.5.2PL0 Copyright (c) Steve Scherf et al.
# Submitted via: ExactAudioCopy v1.0b3
#
DISCID=900ff30a
DTITLE=Robben Ford - Soul On Ten
DYEAR=2009
DGENRE=Blues
TTITLE0=Supernatural
TTITLE1=Indianola
TTITLE2=There'll Never Be Another You
TTITLE3=Spoonful
TTITLE4=Nothin' To Nobody
TTITLE5=Please Set A Date - You Don't Have To Go
TTITLE6=Earthquake
TTITLE7=How Deep In The Blues (Do You Want To Go)
TTITLE8=Don't Worry 'Bout Me
TTITLE9=Thoughtless
EXTD=
EXTT0=
EXTT1=
EXTT2=
EXTT3=
EXTT4=
EXTT5=
EXTT6=
EXTT7=
EXTT8=
EXTT9=
PLAYORDER=
